<svg aria-hidden="true" style="position: absolute; width: 0; height: 0; overflow: hidden;" version="1.1" xmlns="http://www.w3.org/2000/svg" xmlns:xlink="http://www.w3.org/1999/xlink">
<defs>
<symbol id="icon-facebook" viewBox="0 0 20 32">
<path d="M16.948 2.010l-3.523-0.006c-3.956 0-6.513 2.676-6.513 6.825v3.145h-3.543c-0.305 0-0.553 0.256-0.553 0.567v4.561c0 0.311 0.247 0.564 0.553 0.564h3.543v11.503c0 0.314 0.247 0.567 0.553 0.567h4.623c0.305 0 0.553-0.253 0.553-0.567v-11.503h4.143c0.305 0 0.553-0.253 0.553-0.564l0.003-4.561c0-0.151-0.058-0.294-0.163-0.401-0.105-0.105-0.244-0.166-0.393-0.166h-4.143v-2.665c0-1.283 0.3-1.935 1.935-1.935h2.374c0.305 0 0.556-0.253 0.556-0.564v-4.236c0-0.311-0.25-0.564-0.556-0.564z"></path>
</symbol>
<symbol id="icon-twitter" viewBox="0 0 36 32">
<path d="M34.471 3.396c-1.266 0.807-2.667 1.394-4.16 1.714-1.195-1.372-2.894-2.229-4.779-2.229-3.616 0-6.546 3.157-6.546 7.051 0 0.548 0.057 1.092 0.171 1.604-5.444-0.292-10.265-3.1-13.497-7.367-0.562 1.042-0.882 2.251-0.882 3.545 0 2.446 1.156 4.604 2.908 5.863-1.070-0.032-2.080-0.352-2.965-0.878v0.085c0 3.417 2.258 6.261 5.252 6.912-0.548 0.16-1.127 0.245-1.724 0.245-0.423 0-0.832-0.046-1.234-0.124 0.836 2.798 3.253 4.832 6.116 4.892-2.24 1.892-5.063 3.019-8.128 3.019-0.53 0-1.052-0.036-1.564-0.096 2.898 2.002 6.34 3.164 10.037 3.164 12.039 0 18.624-10.738 18.624-20.053l-0.021-0.914c1.284-0.988 2.396-2.229 3.275-3.641-1.177 0.555-2.436 0.939-3.762 1.106 1.355-0.871 2.389-2.254 2.88-3.897z"></path>
</symbol>
</defs>
</svg>
