<svg aria-hidden="true" style="position:absolute;width:0;height:0" xmlns="http://www.w3.org/2000/svg" overflow="hidden"><defs><symbol id="icon-burger" viewBox="0 0 32 32"><path d="M.123 25.044v-2.769h31.754v2.769H.123zm12.431-11.016h19.323v2.708H12.554v-2.708zm-5.6-8.366h24.923v2.831H6.954V5.662z"/></symbol><symbol id="icon-facebook" viewBox="0 0 32 32"><path d="M22.767 2.01l-3.523-.006c-3.956 0-6.513 2.676-6.513 6.825v3.145H9.188a.562.562 0 00-.553.567v4.561c0 .311.247.564.553.564h3.543v11.503a.56.56 0 00.553.567h4.623a.56.56 0 00.553-.567V17.666h4.143a.56.56 0 00.553-.564l.003-4.561a.57.57 0 00-.163-.401.554.554 0 00-.393-.166H18.46V9.309c0-1.283.3-1.935 1.935-1.935h2.374a.562.562 0 00.556-.564V2.574a.561.561 0 00-.556-.564z"/></symbol><symbol id="icon-left-arrow" viewBox="0 0 20 32"><path d="M16.466 4.198L6.281 14.617l10.185 10.421z"/></symbol><symbol id="icon-right-arrow" viewBox="0 0 20 32"><path d="M3.728 4.198l10.185 10.419L3.728 25.038z"/></symbol><symbol id="icon-twitter" viewBox="0 0 32 32"><path d="M31.024 4.656a11.404 11.404 0 01-3.744 1.542c-1.075-1.235-2.605-2.006-4.301-2.006-3.254 0-5.891 2.842-5.891 6.346 0 .493.051.982.154 1.443-4.899-.262-9.238-2.79-12.147-6.63a6.701 6.701 0 00-.794 3.19c0 2.202 1.04 4.144 2.618 5.277a5.55 5.55 0 01-2.669-.79v.077c0 3.075 2.032 5.635 4.726 6.221a5.529 5.529 0 01-2.662.109c.752 2.518 2.928 4.349 5.504 4.403-2.016 1.702-4.557 2.717-7.315 2.717-.477 0-.947-.032-1.408-.086 2.608 1.802 5.706 2.848 9.034 2.848 10.835 0 16.762-9.664 16.762-18.048l-.019-.822a12.403 12.403 0 002.947-3.277 11.203 11.203 0 01-3.386.995c1.219-.784 2.15-2.029 2.592-3.507z"/></symbol></defs></svg>