<svg aria-hidden="true" style="position: absolute; width: 0; height: 0; overflow: hidden;" version="1.1" xmlns="http://www.w3.org/2000/svg" xmlns:xlink="http://www.w3.org/1999/xlink">
<defs>
<symbol id="icon-burger" viewBox="0 0 32 32">
<path d="M0.123 25.044v-2.769h31.754v2.769h-31.754zM12.554 14.028h19.323v2.708h-19.323v-2.708zM6.954 5.662h24.923v2.831h-24.923v-2.831z"></path>
</symbol>
<symbol id="icon-facebook" viewBox="0 0 32 32">
<path d="M22.767 2.010l-3.523-0.006c-3.956 0-6.513 2.676-6.513 6.825v3.145h-3.543c-0.305 0-0.553 0.256-0.553 0.567v4.561c0 0.311 0.247 0.564 0.553 0.564h3.543v11.503c0 0.314 0.247 0.567 0.553 0.567h4.623c0.305 0 0.553-0.253 0.553-0.567v-11.503h4.143c0.305 0 0.553-0.253 0.553-0.564l0.003-4.561c0-0.151-0.058-0.294-0.163-0.401-0.105-0.105-0.244-0.166-0.393-0.166h-4.143v-2.665c0-1.283 0.3-1.935 1.935-1.935h2.374c0.305 0 0.556-0.253 0.556-0.564v-4.236c0-0.311-0.25-0.564-0.556-0.564z"></path>
</symbol>
<symbol id="icon-left-arrow" viewBox="0 0 20 32">
<path d="M16.466 4.198l-10.185 10.419 10.185 10.421z"></path>
</symbol>
<symbol id="icon-right-arrow" viewBox="0 0 20 32">
<path d="M3.728 4.198l10.185 10.419-10.185 10.421z"></path>
</symbol>
<symbol id="icon-twitter" viewBox="0 0 32 32">
<path d="M31.024 4.656c-1.139 0.726-2.4 1.254-3.744 1.542-1.075-1.235-2.605-2.006-4.301-2.006-3.254 0-5.891 2.842-5.891 6.346 0 0.493 0.051 0.982 0.154 1.443-4.899-0.262-9.238-2.79-12.147-6.63-0.506 0.938-0.794 2.026-0.794 3.19 0 2.202 1.040 4.144 2.618 5.277-0.963-0.029-1.872-0.317-2.669-0.79v0.077c0 3.075 2.032 5.635 4.726 6.221-0.493 0.144-1.014 0.221-1.552 0.221-0.381 0-0.749-0.042-1.11-0.112 0.752 2.518 2.928 4.349 5.504 4.403-2.016 1.702-4.557 2.717-7.315 2.717-0.477 0-0.947-0.032-1.408-0.086 2.608 1.802 5.706 2.848 9.034 2.848 10.835 0 16.762-9.664 16.762-18.048l-0.019-0.822c1.155-0.89 2.157-2.006 2.947-3.277-1.059 0.499-2.192 0.845-3.386 0.995 1.219-0.784 2.15-2.029 2.592-3.507z"></path>
</symbol>
</defs>
</svg>
