<svg xmlns="http://www.w3.org/2000/svg"><path d="M9.695.955c-.356.227-.75.392-1.17.482A1.779 1.779 0 007.181.81c-1.017 0-1.841.888-1.841 1.983 0 .154.016.307.048.451-1.531-.082-2.887-.872-3.796-2.072a2.095 2.095 0 00-.248.997c0 .688.325 1.295.818 1.649a1.731 1.731 0 01-.834-.247v.024c0 .961.635 1.761 1.477 1.944a1.728 1.728 0 01-.832.034c.235.787.915 1.359 1.72 1.376a3.529 3.529 0 01-2.726.822c.815.563 1.783.89 2.823.89 3.386 0 5.238-3.02 5.238-5.64l-.006-.257c.361-.278.674-.627.921-1.024a3.504 3.504 0 01-1.058.311c.381-.245.672-.634.81-1.096z"/></svg>